<svg version="1.2" xmlns="http://www.w3.org/2000/svg" viewBox="0 0 340 340" width="340" height="340">
	<title>logo2</title>
	<defs>
		<clipPath clipPathUnits="userSpaceOnUse" id="cp1">
			<path d="m0 0h340v340h-340z"/>
		</clipPath>
	</defs>
	<style>
		.s0 { fill: #000000 } 
		.s1 { fill: #ffffff } 
	</style>
	<g id="Page 1" clip-path="url(#cp1)">
		<path id="Path 1" class="s0" d="m170.1 334c-90.5 0-164.1-73.6-164.1-164.1 0-90.4 73.6-164 164.1-164 90.4 0 164 73.6 164 164 0 90.5-73.6 164.1-164 164.1z"/>
		<path id="Path 2" class="s1" d="m170.1-0.1c-93.8 0-170.1 76.3-170.1 170 0 93.8 76.3 170.1 170.1 170.1 93.7 0 170-76.3 170-170.1 0-93.7-76.3-170-170-170zm0 11.9c87.3 0 158.1 70.8 158.1 158.1 0 87.3-70.8 158.1-158.1 158.1-87.3 0-158.1-70.8-158.1-158.1 0-87.3 70.8-158.1 158.1-158.1z"/>
		<path id="Path 3" fill-rule="evenodd" class="s1" d="m296.6 169.9c0 69.9-56.6 126.6-126.5 126.6-69.9 0-126.6-56.7-126.6-126.6 0-69.9 56.7-126.5 126.6-126.5 69.9 0 126.5 56.6 126.5 126.5zm13-32c-1.3 0-2.5-0.9-2.9-2.3l-0.2-0.9c-0.4-1.6 0.6-3.2 2.2-3.7 1.6-0.4 3.2 0.6 3.6 2.2l0.3 1c0.4 1.6-0.6 3.2-2.2 3.6q-0.4 0.1-0.8 0.1z"/>
		<path id="Path 4" fill-rule="evenodd" class="s1" d="m312.1 149.8c-1.5 0-2.7-1.1-3-2.6l-0.2-1.3c-0.3-1.7 0.8-3.2 2.4-3.5 1.7-0.3 3.2 0.8 3.5 2.4l0.2 1.5c0.3 1.6-0.8 3.2-2.4 3.4q-0.3 0.1-0.5 0.1zm1.4 12c-1.5 0-2.9-1.2-3-2.8l-0.1-1.4c-0.1-1.6 1.1-3.1 2.7-3.2 1.7-0.2 3.1 1 3.3 2.7l0.1 1.4c0.1 1.7-1.1 3.1-2.8 3.3q-0.1 0-0.2 0zm0.4 12.1c-1.6-0.1-3-1.4-3-3.1v-0.9-0.4c0-1.7 1.4-3 3-3.1 1.7 0 3 1.4 3 3v0.5 1c0 1.6-1.3 3-3 3zm-0.5 12q-0.2 0-0.3 0c-1.7-0.1-2.9-1.6-2.7-3.2l0.1-1.4c0.1-1.7 1.6-2.9 3.2-2.8 1.7 0.2 2.9 1.6 2.8 3.3l-0.2 1.4c-0.1 1.6-1.4 2.7-2.9 2.7zm-1.6 12q-0.3 0-0.5 0c-1.7-0.3-2.8-1.9-2.5-3.5l0.3-1.4c0.2-1.6 1.8-2.7 3.4-2.4 1.6 0.2 2.7 1.8 2.5 3.4l-0.3 1.5c-0.2 1.4-1.5 2.4-2.9 2.4zm-2.5 11.4q-0.4 0-0.8-0.1c-1.6-0.4-2.5-2-2.1-3.6l0.2-1c0.4-1.6 2.1-2.5 3.7-2.1 1.6 0.4 2.6 2 2.1 3.6l-0.2 1c-0.4 1.3-1.6 2.2-2.9 2.2zm0.1-72.4c-1.3 0-2.5-0.9-2.9-2.2-7.1-27.5-22.2-52-43.7-70.9-1.3-1.1-1.4-2.9-0.3-4.2 1.1-1.2 3-1.4 4.2-0.3 22.4 19.7 38.2 45.2 45.6 73.9 0.4 1.6-0.5 3.2-2.1 3.6q-0.4 0.1-0.8 0.1zm-84.4-97q-0.6 0-1.2-0.2l-0.9-0.4c-1.5-0.6-2.3-2.4-1.6-3.9 0.6-1.5 2.3-2.3 3.9-1.7l0.9 0.4c1.5 0.7 2.3 2.4 1.6 3.9-0.4 1.2-1.6 1.9-2.7 1.9z"/>
		<path id="Path 5" fill-rule="evenodd" class="s1" d="m239.3 46.8q-0.7 0-1.4-0.4-0.8-0.4-1.6-0.8c-1.5-0.8-2-2.6-1.3-4.1 0.8-1.5 2.6-2 4.1-1.2q0.9 0.4 1.7 0.9c1.4 0.8 2 2.6 1.2 4.1-0.6 0.9-1.6 1.5-2.7 1.5zm13.6 8.5c-0.6 0-1.2-0.2-1.8-0.6q-0.7-0.5-1.5-1c-1.3-1-1.7-2.8-0.7-4.2 0.9-1.4 2.8-1.7 4.1-0.8q0.8 0.6 1.6 1.1c1.3 1 1.7 2.8 0.7 4.2-0.6 0.8-1.5 1.3-2.4 1.3zm11.8 9.3c-0.7 0-1.4-0.3-1.9-0.8l-0.8-0.6c-1.2-1.1-1.4-3-0.3-4.2 1.1-1.3 3-1.4 4.2-0.3l0.8 0.6c1.2 1.1 1.4 3 0.3 4.3-0.6 0.6-1.4 1-2.3 1zm-40.7-25.1q-0.5 0-1.1-0.2c-11.3-4.6-23.3-7.7-35.4-9.2-1.7-0.2-2.8-1.7-2.6-3.3 0.2-1.7 1.7-2.8 3.3-2.6 12.7 1.5 25.1 4.8 37 9.5 1.5 0.7 2.2 2.4 1.6 3.9-0.5 1.2-1.6 1.9-2.8 1.9zm-108.4 0.2c-1.2 0-2.3-0.7-2.8-1.8-0.6-1.6 0.1-3.3 1.7-3.9 11.8-4.9 24.4-8.2 37.1-9.8 1.7-0.2 3.2 1 3.4 2.6 0.2 1.7-1 3.2-2.6 3.4-12.3 1.5-24.3 4.6-35.7 9.3q-0.5 0.2-1.1 0.2zm-40.1 24.8c-0.9 0-1.7-0.3-2.3-1-1.1-1.2-1-3.1 0.3-4.2l0.7-0.7c1.3-1.1 3.2-0.9 4.3 0.3 1.1 1.3 0.9 3.2-0.3 4.3l-0.8 0.6c-0.5 0.5-1.2 0.7-1.9 0.7z"/>
		<path id="Path 6" fill-rule="evenodd" class="s1" d="m100.5 47c-1.1 0-2.1-0.6-2.6-1.6-0.8-1.4-0.3-3.2 1.1-4q0.9-0.5 1.7-1c1.5-0.7 3.3-0.2 4 1.3 0.8 1.4 0.3 3.2-1.2 4q-0.8 0.5-1.6 0.9-0.7 0.4-1.4 0.4zm-13.3 8.3c-1 0-1.9-0.4-2.5-1.2-1-1.4-0.6-3.2 0.7-4.2q0.8-0.6 1.6-1.1c1.3-0.9 3.2-0.6 4.1 0.8 1 1.4 0.6 3.2-0.7 4.2q-0.8 0.5-1.5 1c-0.5 0.4-1.2 0.5-1.7 0.5zm27.5-15.2c-1.2 0-2.3-0.7-2.8-1.8-0.6-1.6 0.1-3.3 1.6-3.9l1-0.4c1.5-0.7 3.2 0.1 3.9 1.6 0.6 1.5-0.1 3.3-1.7 3.9l-0.9 0.4q-0.6 0.2-1.1 0.2zm-84 96.9q-0.3 0-0.7-0.1c-1.6-0.4-2.6-2.1-2.2-3.7 7.4-28.7 23.2-54.3 45.7-73.9 1.2-1.1 3.1-1 4.2 0.3 1.1 1.2 1 3.1-0.3 4.2-21.5 18.8-36.7 43.4-43.8 70.9-0.3 1.4-1.5 2.3-2.9 2.3zm0.1 72.3c-1.3 0-2.5-0.9-2.9-2.2l-0.2-1c-0.4-1.6 0.6-3.2 2.2-3.6 1.6-0.4 3.2 0.5 3.6 2.1l0.2 1c0.5 1.6-0.5 3.2-2.1 3.6q-0.4 0.1-0.8 0.1z"/>
		<path id="Path 7" fill-rule="evenodd" class="s1" d="m27 185.9c1.7-0.1 2.9-1.6 2.8-3.2l-0.2-1.4c-0.1-1.7-1.5-2.9-3.2-2.8-1.6 0.2-2.9 1.6-2.7 3.3l0.1 1.4c0.1 1.6 1.4 2.8 3 2.8q0.1 0 0.2-0.1zm1.9 12c1.6-0.3 2.7-1.8 2.4-3.5l-0.2-1.3c-0.3-1.7-1.8-2.8-3.5-2.5-1.6 0.2-2.7 1.8-2.4 3.4l0.2 1.5c0.3 1.4 1.5 2.4 3 2.4q0.2 0 0.5 0zm2.1-50.6l0.2-1.4c0.3-1.7-0.8-3.2-2.4-3.5-1.6-0.3-3.2 0.8-3.5 2.5l-0.2 1.4c-0.3 1.6 0.8 3.2 2.5 3.4q0.2 0.1 0.5 0.1c1.4 0 2.7-1.1 2.9-2.5zm-1.4 11.7l0.1-1.4c0.2-1.6-1.1-3.1-2.7-3.2-1.7-0.2-3.1 1.1-3.2 2.7l-0.2 1.5c-0.1 1.6 1.1 3 2.8 3.2q0.1 0 0.2 0c1.6 0 2.9-1.2 3-2.8zm-0.4 11.9v-1-0.4c0-1.7-1.3-3-3-3-1.6 0-3 1.3-3 2.9v0.5 1c0 1.6 1.4 3 3 3 1.7 0 3-1.4 3-3zm4.2-35.2l0.2-1c0.4-1.6-0.5-3.2-2.1-3.6-1.6-0.5-3.3 0.5-3.7 2.1l-0.2 1c-0.4 1.6 0.6 3.2 2.2 3.6q0.3 0.1 0.7 0.1c1.3 0 2.6-0.9 2.9-2.2zm19.3 105.9l-1.3-2.2-9 1.5 6.1-6.9-1.2-2.1-12.3 4.5 1.2 2.2 7.9-3.1-5.5 6.3 1 1.8 8.3-1.5-6.8 5.2 1.3 2.4z"/>
		<path id="Path 8" class="s1" d="m51 255.7c-1.5 1-2.3 2.3-3.4 3-1.9 1.3-3.8 1-5.5-1.6-1.3-1.8-1.4-3.6 0-4.6 0.5-0.3 1.1-0.5 1.7-0.5l0.5 1.7c-0.3 0-0.5 0.2-0.7 0.3-0.6 0.4-0.6 1 0.1 2.1 0.9 1.2 1.7 1.5 2.9 0.7 0.6-0.4 1-0.8 1.5-1.3q-1.7-0.1-2.7-1.5c-1-1.4-0.7-2.8 0.6-3.7 0.8-0.5 1.7-1 2.7-1.7 1.1-0.7 1.5-1.1 2-1.7l1.5 1.4c-0.3 0.6-0.7 1.2-1.9 2-0.9 0.6-2 1.1-2.5 1.5-0.5 0.4-0.9 0.9-0.5 1.5 0.7 1 2.5 0.5 4.3-0.7l2.3-1.6 1.3 1.8z"/>
		<path id="Path 9" class="s1" d="m71.9 266c-0.2 0.7-0.7 1.7-1.6 2.5-2.2 2-5.1 3-10.3 3.9l-1.5-1.7 2.8-4.3c-1.7 0.7-3.8 1.1-5.4 1.4l-1.4-1.7 4.9-8c0.7-1.1 1.2-2 1.5-2.9l2.1 1c-0.1 1-0.5 1.7-1.4 3.1l-3.8 5.9c2.3-0.5 4-1.1 5.2-1.8l0.5-0.8c0.5-0.8 1.3-2 1.5-2.8l2.1 1c-0.2 1-0.6 1.9-1.4 3.1l-3.8 5.7c2.8-0.6 5.1-1.5 6.5-2.7 0.8-0.7 1.3-1.6 1.5-2z"/>
		<path id="Path 10" class="s1" d="m69.6 278.3l-0.3 1.8c-0.4 0.1-2.1 0-3.5-1.4-1.7-1.6-2-3.8 0.1-5.9 1.9-2 4.6-2.5 6.5-0.7 1.6 1.6 1.3 3.2 0.3 4.3-0.7 0.7-1.5 1.2-2 1.3l-3.3-3.2c-0.8 0.8-1.1 2-0.1 2.9 0.8 0.8 1.8 0.9 2.3 0.9zm1.4-4.8c-0.6-0.7-1.6-0.6-2.4-0.1l2.1 2q0.2-0.1 0.4-0.4c0.4-0.4 0.5-1-0.1-1.5z"/>
		<path id="Path 11" class="s1" d="m76.6 287.5l-1.7-0.9c0.1-0.3 0.2-0.8 0.6-1.4-1 0.3-2.1 0.2-3.1-0.7-1.7-1.4-1.5-3.6 0.2-5.6 1.9-2.2 4.3-2.6 6-1.2 0.6 0.6 1 1.2 1.3 1.7l1.3-1.6c0.8-0.9 1.2-1.5 1.5-2.2l1.9 1c-0.1 0.5-0.4 1.3-1.3 2.4l-5.2 6.2c-0.8 0.9-1.2 1.5-1.5 2.3zm0.6-5.3l1.2-1.4c0-0.3-0.3-0.9-0.8-1.3-1.1-0.9-2.4-0.1-3.3 0.8-0.8 1-1.2 2.2-0.3 2.9 0.9 0.8 2.3 0.2 3.2-1z"/>
		<path id="Path 12" class="s1" d="m85 293.7l-1.8-0.8c0.1-0.3 0.2-0.8 0.6-1.4-1 0.4-2.2 0.3-3.2-0.4-1.8-1.3-1.7-3.5-0.2-5.6 1.7-2.4 4.1-3 5.9-1.6 0.7 0.5 1.1 1 1.4 1.5l1.2-1.6c0.8-1 1.1-1.7 1.3-2.3l2 0.8c-0.1 0.5-0.3 1.4-1.1 2.5l-4.8 6.5c-0.7 1-1 1.6-1.3 2.4zm0.3-5.2l1.1-1.6c-0.1-0.2-0.4-0.8-1-1.2-1.1-0.8-2.4 0-3.1 1.1-0.8 1-1.1 2.2-0.2 2.9 1 0.7 2.3-0.1 3.2-1.2z"/>
		<path id="Path 13" class="s1" d="m93.2 284.7c0.6-0.8 1.3-0.7 2.1-0.2 0.7 0.4 1.1 1 0.5 1.9-0.5 0.8-1.2 0.7-1.9 0.2-0.7-0.5-1.2-1.1-0.7-1.9zm-1.2 6.8c-0.8 1.2-1.5 2.1-1.9 2.7-0.3 0.5-0.2 0.8 0.1 1q0.3 0.2 0.8 0.3l-0.7 1.7c-0.6 0-1.2-0.2-1.8-0.6-1.1-0.8-1.4-2-0.5-3.3 0.6-0.9 1.2-1.7 2-2.9l1.6-2.5 1.9 1.2z"/>
		<path id="Path 14" class="s1" d="m100.6 293.1c1.9 1.1 1.7 2.7 1.1 3.7-0.6 1-1.3 1.9-2 3.1l-1.3 2.3-1.9-1.1 1-1.8c0.7-1.3 1.5-2.4 1.9-3.1 0.4-0.7 0.4-1.3-0.2-1.7-1.3-0.7-2.9 0.6-4 2.4l-1.5 2.6-2-1.2 3-5.1c0.6-1.1 0.9-1.7 1.1-2.4l1.7 0.5c0 0.3-0.2 0.9-0.5 1.6 1.1-0.5 2.3-0.5 3.6 0.2z"/>
		<path id="Path 15" fill-rule="evenodd" class="s1" d="m111.6 298.6c-0.4-0.2-0.7 0.1-0.9 0.6l-0.2 0.3q0.2 1-0.2 1.7c-0.8 1.5-2.8 2.5-5.2 1.4q-1-0.6-1.4-1.3-0.4 0.2-0.5 0.6c-0.3 0.6-0.2 1 0.6 1.4 0.3 0.1 1.2 0.5 1.8 0.8 1.6 0.8 2.6 2.2 1.8 3.9-0.9 1.9-3 2.3-5.7 1-2.3-1.1-3.2-2.7-2.5-4.2 0.5-1 1.3-1.4 2.1-1.5-0.4-0.6-0.3-1.4 0-2 0.3-0.7 1-1.3 1.7-1.6q0-0.7 0.3-1.3c0.8-1.7 3-2.5 5.2-1.4q0.7 0.4 1.1 0.8c0.7-1 1.7-1.3 2.7-0.8q0.7 0.3 1.1 1l-1.2 1.1q-0.1-0.3-0.6-0.5zm-9.2 6.1c-0.4 0.1-0.9 0.3-1.1 0.7-0.3 0.8 0.3 1.3 1.4 1.9 1.3 0.6 2.3 0.7 2.7 0 0.3-0.7-0.1-1.2-1-1.6-0.2-0.1-1-0.4-1.5-0.7-0.2-0.1-0.3-0.1-0.5-0.3zm3.6-3.8c1.1 0.5 2 0.2 2.4-0.6 0.3-0.5 0.1-1.2-0.8-1.6-1-0.5-1.9-0.2-2.3 0.6-0.3 0.6-0.1 1.2 0.7 1.6zm21.5 13.4c-0.9 0-1.9-0.2-2.6-0.5-1.1-0.4-2.1-1-3-1.7-0.9 0.1-2-0.1-3.4-0.5-3.9-1.4-4.1-4.1-3.5-6 0.6-1.7 2.1-2.7 3.6-2.9q0.1-0.6 0.4-1.2c0.6-1.8 2.1-3.4 4.5-2.6 1.8 0.6 2.3 2.2 1.9 3.3-0.4 1-1.2 2-1.8 2.3l-1.3-1.3c0.4-0.4 0.8-0.6 1-1.1 0.2-0.6 0.1-1.1-0.6-1.4-0.8-0.3-1.3 0.5-1.7 1.4-0.8 2.2-0.1 5.5 1.6 7.7 0.9-0.4 1.4-1.2 1.6-1.9 0.2-0.5 0.4-1.4 0.4-2.2l2 0.2c0.1 0.8 0 1.9-0.3 2.7-0.4 1-1 2-2 2.7q0.5 0.4 1.1 0.6c0.7 0.2 1.6 0.4 2.5 0.4zm-8.4-4.5q0.5 0.1 0.8 0.2c-1-1.5-1.5-3.3-1.6-5.1-0.5 0.3-1 0.7-1.2 1.5-0.4 1.1-0.1 2.6 2 3.4zm21.6 2l-3.7-0.8-0.8 3.3 5.1 1.1-0.5 2.2-7.4-1.7 2.9-12.6 7 1.6-0.5 2.2-4.7-1.1-0.7 3 3.7 0.9z"/>
		<path id="Path 16" fill-rule="evenodd" class="s1" d="m147.9 310.3c0.1 0.3 0.3 1.1 0.2 1.8-0.2 1.1-1 2.6-2.1 3.9l-0.4-3.8c-0.2-1.2-0.5-2.2-1-3l-2 0.8c0.3 0.7 0.5 1.5 0.7 2.8l0.9 5.4 2.4 0.3c2.3-2.5 3.4-4.2 3.7-6.1 0.2-1.2-0.1-2.2-0.3-2.5zm6.9 7.5c-1.3-0.1-1.8-1.2-1.7-2.3l4.7 0.5c0.2-0.4 0.6-1.4 0.7-2.3 0.1-1.5-0.6-3-2.9-3.2-2.6-0.3-4.4 1.8-4.7 4.6-0.3 2.9 1.2 4.4 3.6 4.7 2 0.2 3.3-0.8 3.6-1.1l-0.9-1.6c-0.4 0.4-1.3 0.8-2.4 0.7zm1.6-4.2q0 0.3-0.1 0.6l-2.9-0.3c0.3-0.9 1.1-1.6 2-1.5 0.8 0.1 1.1 0.6 1 1.2zm6-0.9c-0.1-0.8-0.2-1.3-0.3-1.7l-1.8 0.4c0.2 0.7 0.2 1.4 0.2 2.7l-0.3 5.9h2.3l0.2-2.9c0-2.1 0.9-4 2.4-3.9 0.7 0 1 0.5 0.9 1.3 0 0.8-0.2 2.1-0.2 3.7l-0.1 2 2.3 0.1 0.1-2.6c0-1.4 0.2-2.5 0.3-3.8 0-1.1-0.5-2.6-2.8-2.7-1.4-0.1-2.5 0.6-3.2 1.5zm11.3-3.4l-2.3 0.6v1.6l-1.7 0.1 0.1 2h1.6l0.1 1.2c0 1.3-0.1 2.3-0.1 2.9 0 1.9 1.2 2.8 2.8 2.7 1.3 0 2.3-0.6 2.8-1.2l-0.9-1.6c-0.4 0.4-0.9 0.7-1.5 0.7q-0.8 0-0.8-1.1c0-0.6 0-1.1 0-2.4v-1.3h2.6l-0.1-2.1-2.6 0.1zm9.8 10.4l2.3-0.3-0.5-4.2c0.7 0 0.9 0 1.4-0.1 3-0.3 4.6-2.6 4.2-5.6-0.3-3.1-2.7-3.7-5-3.4-1.3 0.1-2.9 0.6-3.9 1.1zm5.1-9.8c0.2 1.8-0.7 2.8-2.2 3-0.5 0.1-0.8 0.1-1.3 0.1l-0.4-4.3c0.5-0.2 0.9-0.3 1.4-0.4 1.3-0.1 2.3 0.1 2.5 1.6zm6.2 0.7q-0.4-1-0.7-1.4l-1.6 0.8c0.3 0.6 0.5 1.3 0.8 2.8l1 5.5 2.2-0.4-0.7-3.6c-0.3-1.9 0.2-3.4 1.1-3.5 0.4-0.1 0.6 0.2 0.7 0.5 0 0.2 0 0.5-0.1 0.7l1.9 0.1c0.1-0.5 0.2-1.2 0.1-1.8-0.2-1.2-1.3-1.8-2.4-1.6-1.1 0.2-1.9 1-2.3 1.9zm10.8 5.7c2.9-0.7 3.4-3.1 2.9-5.4-0.6-2.4-2.2-4.2-5-3.6-2.9 0.7-3.3 3.1-2.7 5.5 0.6 2.3 2 4.2 4.8 3.5zm-0.4-1.9c-1.3 0.3-1.9-1-2.2-2.2-0.3-1.2-0.3-2.6 0.9-3 1.4-0.3 2 0.8 2.3 2.2 0.4 1.3 0.3 2.7-1 3zm11.9-10.9v-1.6q-0.8-0.2-1.5 0c-1.1 0.3-1.6 1.2-1.3 2.4q-0.7 0-1.4 0.2c-2.3 0.8-3.4 2.8-2.9 4.6q0.3 0.7 0.7 1.1c-0.3 0.8-0.3 1.6-0.1 2.3 0.2 0.7 0.7 1.3 1.3 1.5-0.4 0.6-0.7 1.5-0.4 2.5 0.5 1.6 2.3 2.1 4.7 1.4 2.8-0.9 4.1-2.7 3.4-4.6-0.5-1.9-2.3-2.2-4-1.7-0.6 0.2-1.5 0.6-1.8 0.7-0.9 0.2-1.2 0-1.4-0.6q-0.1-0.3 0-0.7 0.7 0.2 1.9-0.1c2.4-0.8 3.3-2.9 2.8-4.5q-0.3-0.9-1-1.4l-0.1-0.4c-0.2-0.5-0.2-0.9 0.3-1.1q0.4-0.1 0.8 0zm-5 4.9c-0.2-0.8 0.3-1.7 1.3-2.1 0.9-0.2 1.5 0.1 1.7 0.7 0.2 0.8-0.2 1.7-1.3 2.1-0.9 0.2-1.5-0.1-1.7-0.7zm2.3 5.8c0.5-0.2 1.2-0.5 1.5-0.6 0.9-0.2 1.5-0.2 1.8 0.5 0.2 0.7-0.6 1.4-2 1.9-1.1 0.3-2 0.3-2.2-0.4-0.1-0.5 0-0.9 0.2-1.3 0.3 0 0.4-0.1 0.7-0.1z"/>
		<path id="Path 17" fill-rule="evenodd" class="s1" d="m220.2 303.7q-0.5-0.9-0.9-1.2l-1.5 1c0.5 0.6 0.8 1.2 1.4 2.6l2 5.3 2.1-0.8-1.4-3.5c-0.6-1.8-0.5-3.3 0.4-3.7 0.4-0.1 0.6 0.1 0.8 0.4 0 0.2 0.1 0.5 0.1 0.7l1.8-0.2c0.1-0.5 0-1.2-0.2-1.8-0.5-1.1-1.6-1.5-2.6-1.1-1.1 0.4-1.8 1.3-2 2.3zm14.2 0.4c-0.3 0.2-0.6-0.2-0.9-0.9-0.4-0.8-0.9-2.4-1.2-3-0.8-1.9-2.4-2.1-4.2-1.3-1.9 0.8-2.8 2.2-2.2 3.7 0.3 0.6 0.8 1.1 1 1.2l1.3-1.2c-0.2-0.1-0.3-0.3-0.4-0.5-0.2-0.5 0.2-1.1 1-1.5 1-0.4 1.4-0.1 1.7 0.5l0.1 0.2c-0.7 0.8-1.7 1.6-2.4 2.4-0.9 0.9-1.2 1.7-0.7 3 0.6 1.2 1.8 1.7 3.4 1 1-0.4 1.6-1.3 1.8-2.1 0.6 0.6 1.4 0.6 2.1 0.3 0.8-0.3 1.2-1.1 1.2-1.7l-1.3-0.6c0 0.3-0.1 0.4-0.3 0.5zm-2.7 0c0.1 0.4-0.3 1.5-1.2 1.9-0.5 0.2-0.9 0-1.1-0.4-0.1-0.3-0.1-0.7 0.3-1 0.9-0.9 1.3-1.3 1.6-1.6q0.1 0.4 0.3 0.9z"/>
		<path id="Path 18" class="s1" d="m242 291.7c1.8-1 3 0 3.6 1 0.6 1.1 1 2.1 1.7 3.4l1.2 2.2-2 1.1-0.9-1.7c-0.8-1.4-1.3-2.6-1.8-3.3-0.3-0.7-0.7-1-1.3-0.7-1.1 0.6-0.8 2.6 0.2 4.5l1.4 2.6-2 1.1-0.9-1.7c-0.8-1.4-1.3-2.6-1.8-3.4-0.3-0.6-0.7-1-1.3-0.7-1.1 0.7-0.8 2.7 0.2 4.6l1.4 2.5-2 1.2-2.8-5.2c-0.7-1.1-1.1-1.7-1.6-2.2l1.3-1.2c0.3 0.2 0.7 0.6 1.2 1.2 0.1-1.1 0.6-2.2 1.7-2.8 1.2-0.6 2.1-0.3 2.8 0.2 0.1-1.1 0.6-2.1 1.7-2.7z"/>
		<path id="Path 19" class="s1" d="m256.6 292.9l-2 1.3-7.3-10.6 1.9-1.3z"/>
		<path id="Path 20" class="s1" d="m257.3 281.2c1.8-1.4 3.2-0.6 3.9 0.3 0.7 1 1.3 2 2.2 3.1l1.5 2-1.8 1.4-1.2-1.5c-0.9-1.3-1.6-2.4-2.2-3.1-0.4-0.6-0.9-0.8-1.6-0.4-1.1 0.9-0.6 2.9 0.7 4.6l1.8 2.3-1.8 1.5-3.6-4.7c-0.8-1.1-1.3-1.5-1.8-1.9l1.1-1.5c0.3 0.2 0.8 0.6 1.3 1.1 0-1.1 0.4-2.4 1.5-3.2z"/>
		<path id="Path 21" class="s1" d="m265.6 283.7c-0.5-0.6-0.7-1.3-0.7-1.7l1.7-0.6c0 0.2 0.1 0.5 0.3 0.7 0.3 0.3 0.8 0.2 1.5-0.4 0.6-0.5 0.7-1 0.5-1.3-0.3-0.4-0.9-0.2-1.9 0.1-1.6 0.4-3.1 0.8-4.2-0.4-0.9-1.1-1-2.6 0.8-4.2 1.6-1.3 2.9-1.2 3.7-0.4 0.4 0.5 0.6 1.1 0.6 1.5l-1.7 0.7c0-0.2-0.1-0.4-0.3-0.6-0.2-0.3-0.7-0.2-1.2 0.2-0.5 0.5-0.5 0.9-0.3 1.2 0.3 0.3 0.9 0.3 2.5-0.2 1.6-0.4 2.8-0.5 3.6 0.4 0.8 1 1 2.7-0.9 4.4-2 1.8-3.3 1.4-4 0.6z"/>
		<path id="Path 22" class="s1" d="m278.6 273.8l-0.9 1.5c-0.3-0.1-0.8-0.3-1.3-0.7 0.2 1.3-0.2 2.3-1 3.1-1.4 1.3-2.8 0.8-3.7-0.1-0.8-0.9-1.2-1.5-2.3-2.6-0.9-0.9-1.4-1.3-2-1.6l1-1.7c0.6 0.1 1.3 0.5 2.2 1.4 1 1 1.7 1.9 2.4 2.5 0.4 0.5 0.9 0.7 1.4 0.2 1-1.1-0.2-2.8-1.8-4.4l-1.8-1.9 1.6-1.6 4.1 4.2c0.9 0.9 1.5 1.4 2.1 1.7z"/>
		<path id="Path 23" class="s1" d="m276.7 262.8c0.7-0.9 1.9-1.1 2.8-0.2 0.5 0.4 0.8 1 1.1 1.5l-1.6 1c-0.1-0.2-0.3-0.4-0.4-0.6-0.2-0.2-0.6-0.3-0.8 0-0.7 0.7-0.1 2.1 1.3 3.4l2.8 2.5-1.5 1.7-4.2-3.8c-1.1-0.9-1.7-1.4-2.4-1.7l0.9-1.6q0.4 0.2 1.3 0.7c-0.3-0.9-0.1-2.1 0.7-2.9z"/>
		<path id="Path 24" class="s1" d="m288.9 259l1.4-0.1c0.2 0.6 0.2 1.5-0.3 2.1-0.5 0.6-1.2 0.9-2 0.7 0.2 0.8 0 1.8-0.7 2.7-1 1.4-2.4 1.5-3.4 0.6-1.1-0.8-1.3-1.7-0.9-2.9 0.4-1.1 0.9-2.2 1.1-3.2l-0.2-0.2c-0.5-0.4-1-0.5-1.6 0.4-0.6 0.7-0.8 1.4-0.3 1.7 0.2 0.2 0.4 0.3 0.6 0.3l-0.6 1.7c-0.3-0.1-0.9-0.3-1.4-0.7-1.3-1-1.1-2.6 0.2-4.3 1.2-1.5 2.7-2.1 4.3-0.8 0.6 0.5 1.7 1.6 2.5 2.2 0.6 0.5 0.9 0.7 1.2 0.4 0.1-0.2 0.1-0.3 0.1-0.6zm-2.7 1.7q-0.3-0.3-0.7-0.7c-0.1 0.5-0.3 1-0.7 2.2-0.2 0.4-0.1 0.8 0.2 1 0.4 0.3 0.8 0.3 1.1-0.1 0.7-0.8 0.6-1.9 0.3-2.3z"/>
		<path id="Path 25" class="s1" d="m287.2 249.1c1.3-1.9 2.9-1.5 3.8-0.9 1 0.7 1.8 1.5 3 2.3l2.1 1.5-1.3 1.8-1.6-1.1c-1.3-0.9-2.3-1.7-3-2.2-0.6-0.4-1.2-0.5-1.6 0.1-0.8 1.2 0.3 3 2 4.2l2.4 1.6-1.3 1.9-4.8-3.3c-1.1-0.8-1.7-1.1-2.4-1.3l0.7-1.7c0.3 0.1 0.9 0.3 1.6 0.6-0.4-1-0.4-2.3 0.4-3.5z"/>
		<path id="Path 26" class="s1" d="m300.1 243c0.2 0.6 0.6 2.2-0.5 4-1.2 2-3.4 2.7-5.7 1.3-2.1-1.2-3.6-4-2.1-6.4 0.8-1.5 2.4-1.9 3.7-1.1 0.7 0.4 1.2 1 1.4 1.4l-1.4 1.3c-0.1-0.2-0.4-0.6-0.8-0.8-0.5-0.3-1-0.2-1.4 0.4-0.5 0.9 0.5 2.5 1.6 3.1 1.4 0.9 2.5 0.6 3.1-0.5 0.6-0.9 0.4-2.1 0.3-2.6z"/>
		<path id="Path 27" fill-rule="evenodd" class="s1" d="m302.2 238.2c-0.6 1.2-1.8 1.2-2.8 0.7l2.2-4.1c-0.3-0.4-1-1.1-1.9-1.5-1.3-0.7-3-0.6-4 1.5-1.2 2.3 0.1 4.7 2.5 6 2.6 1.4 4.6 0.5 5.7-1.6 1-1.7 0.5-3.3 0.4-3.8l-1.8 0.3c0.1 0.5 0.2 1.5-0.3 2.5zm-3.3-3.1q0.3 0.2 0.5 0.4l-1.4 2.5c-0.7-0.6-1-1.5-0.6-2.3 0.4-0.7 1-0.8 1.5-0.6zm-264.6-21.8c-3.1 0-5.6 2.5-5.6 5.6 0 3 2.5 5.5 5.6 5.5 3 0 5.5-2.5 5.5-5.5 0-3.1-2.5-5.6-5.5-5.6z"/>
		<path id="Path 28" fill-rule="evenodd" class="s1" d="m310.7 218.9c0 3-2.5 5.5-5.6 5.5-3 0-5.5-2.5-5.5-5.5 0-3.1 2.5-5.6 5.5-5.6 3.1 0 5.6 2.5 5.6 5.6zm-134.8-191.7c0 3-2.5 5.5-5.5 5.5-3.1 0-5.6-2.5-5.6-5.5 0-3.1 2.5-5.6 5.6-5.6 3 0 5.5 2.5 5.5 5.6z"/>
		<path id="Path 29" class="s0" d="m170.1 290c-66.3 0-120.1-53.8-120.1-120.1 0-66.2 53.8-120.1 120.1-120.1 66.2 0 120.1 53.9 120.1 120.1 0 66.3-53.9 120.1-120.1 120.1zm0-236.2c-64.1 0-116.1 52.1-116.1 116.1 0 64.1 52 116.1 116.1 116.1 64 0 116.1-52 116.1-116.1 0-64-52.1-116.1-116.1-116.1z"/>
		<path id="Path 30" class="s0" d="m230.8 104.6c-7.4-20.9-32.4-35.4-60.8-35.4-28.4 0-53.4 14.5-60.8 35.4l-3.8-1.3c8-22.5 34.6-38.1 64.6-38.1 30 0 56.6 15.6 64.6 38.1z"/>
		<path id="Path 31" class="s0" d="m264.9 126.6h-4.8l-0.3-1.6c-2.4-11.1-14.3-19.2-28.3-19.2-14 0-25.9 8.1-28.3 19.2l-0.4 1.6h-4.1l-0.4-1.6c-2.4-11.1-14.3-19.2-28.3-19.2-14 0-25.9 8.1-28.3 19.2l-0.3 1.6h-4.2l-0.4-1.6c-2.4-11.1-14.3-19.2-28.3-19.2-14 0-25.9 8.1-28.3 19.2l-0.3 1.6h-4.8l0.9-2.6c11.6-34.7 50.3-58.8 94-58.8 43.7 0 82.4 24.1 94 58.8zm-156.4-24.8c14 0 26.2 7.3 30.8 17.8 4.6-10.5 16.8-17.8 30.7-17.8 14 0 26.1 7.3 30.8 17.8 4.6-10.5 16.8-17.8 30.7-17.8 7.2 0 14 2 19.5 5.3-16.5-23-47.1-38-81-38-33.8 0-64.5 15-80.9 38 5.5-3.3 12.2-5.3 19.4-5.3z"/>
		<path id="Path 32" class="s0" d="m170 141.1c-1.1 0-2-0.9-2-2v-78.2c0-1.1 0.9-2 2-2 1.1 0 2 0.9 2 2v78.2c0 1.1-0.9 2-2 2z"/>
		<path id="Path 33" class="s0" d="m169 135.7l-24.8-20.3 2.6-3.1 24.8 20.3z"/>
		<path id="Path 34" fill-rule="evenodd" class="s0" d="m196.1 115.4l-2.6-3.1-24.8 20.3 2.6 3.1zm-87.3 120.1c-3.7 0-6.7 3-6.7 6.7 0 3.7 3 6.7 6.7 6.7 3.7 0 6.7-3 6.7-6.7 0-3.7-3-6.7-6.7-6.7zm122.6 0c-3.7 0-6.7 3-6.7 6.7 0 3.7 3 6.7 6.7 6.7 3.7 0 6.7-3 6.7-6.7 0-3.7-3-6.7-6.7-6.7z"/>
		<path id="Path 35" class="s0" d="m170.6 275.5q-0.5 0-1-0.3c-0.9-0.5-1.3-1.7-0.8-2.7 3.2-5.8 5-12.4 5.2-18.9 0.2-8.4-2.2-14.5-3.5-17.8-2.3-5.7-4.6-11.7-10.7-16-2.6-1.9-6.9-4.2-12.6-4.6-2.9-0.2-8.2-0.6-13 2.8-4.6 3.3-6.1 8.1-6.5 9.7-0.7 2.4-2.7 8.9 1.2 14.2 3.7 5.1 10 5.5 11.9 5.5h0.1c4.5 0 8.2-1.5 10.7-4.3 2.1-2.3 5.1-7.6 2.7-12.7-1.6-3.6-5.6-7-9.8-6.1-4.5 0.9-6.3 5.8-6.4 6-0.4 1-1.5 1.5-2.6 1.2-1-0.4-1.5-1.6-1.2-2.6 0.3-0.7 2.9-7.2 9.4-8.5 6.3-1.3 11.9 3.2 14.3 8.4 3 6.5 0 13.2-3.4 17-3.4 3.7-8.1 5.6-13.8 5.6-2.4 0-10.3-0.6-15.1-7.2-5-6.9-2.6-15-1.9-17.7 0.6-1.9 2.3-7.7 8-11.7 6-4.3 12.5-3.8 15.6-3.6 6.7 0.4 11.7 3.1 14.7 5.3 7 5 9.7 11.8 12.1 17.9 1.3 3.2 4 10.1 3.8 19.3-0.2 7.2-2.2 14.3-5.7 20.7-0.3 0.7-1 1.1-1.7 1.1z"/>
		<path id="Path 36" fill-rule="evenodd" class="s0" d="m128.3 225c0.9-0.6 1.2-1.9 0.6-2.8-0.7-0.9-1.9-1.2-2.8-0.5-4.1 2.7-8.9 3.1-12 1-0.6-0.4-3.6-2.6-3.3-5.8 0.2-1.8 1.5-4.4 3.9-4.7 1.6-0.1 3.3 0.8 4.3 2.3 0.6 1 1.8 1.2 2.8 0.6 0.9-0.6 1.1-1.8 0.5-2.8-1.8-2.8-4.9-4.4-8-4.1-4.4 0.5-7.1 4.6-7.5 8.3-0.4 4.2 2.3 7.7 5 9.5 2 1.4 4.4 2.1 7 2.1 3.1 0 6.5-1.1 9.5-3.1zm42.2 50.2c1-0.5 1.3-1.7 0.8-2.7-3.2-5.8-4.9-12.4-5.1-18.9-0.2-8.4 2.2-14.5 3.5-17.8 2.2-5.7 4.6-11.7 10.7-16 2.6-1.9 6.9-4.2 12.6-4.6 2.8-0.2 8.2-0.6 13 2.8 4.6 3.3 6 8.1 6.5 9.7 0.7 2.4 2.6 8.9-1.3 14.2-3.7 5.1-10 5.5-11.8 5.5h-0.2c-4.4 0-8.1-1.5-10.7-4.3-2.1-2.3-5-7.6-2.7-12.7 1.6-3.6 5.7-7 9.9-6.1 4.4 0.9 6.3 5.8 6.4 6 0.3 1 1.5 1.5 2.5 1.2 1.1-0.4 1.6-1.6 1.2-2.6-0.3-0.7-2.9-7.2-9.3-8.5-6.3-1.3-12 3.2-14.3 8.4-3 6.5-0.1 13.2 3.4 17 3.3 3.7 8.1 5.7 13.8 5.6 2.3 0 10.3-0.6 15.1-7.2 5-6.9 2.6-15 1.8-17.7-0.6-1.9-2.3-7.7-8-11.7-6-4.3-12.5-3.8-15.6-3.6-6.6 0.4-11.6 3.1-14.7 5.3-7 5-9.7 11.8-12.1 17.9-1.3 3.2-4 10.1-3.7 19.3 0.2 7.2 2.1 14.3 5.6 20.7 0.4 0.7 1.1 1.1 1.8 1.1q0.5 0 0.9-0.3z"/>
		<path id="Path 37" fill-rule="evenodd" class="s0" d="m228.3 226c2.7-1.8 5.4-5.3 5-9.5-0.3-3.7-3.1-7.8-7.5-8.3-3-0.3-6.1 1.3-8 4.1-0.6 1-0.3 2.2 0.6 2.8 0.9 0.6 2.1 0.4 2.7-0.6 1.1-1.5 2.8-2.5 4.3-2.3 2.4 0.3 3.8 2.9 3.9 4.7 0.4 3.2-2.6 5.4-3.2 5.8-3.1 2.1-8 1.7-12.1-1-0.9-0.7-2.1-0.4-2.7 0.5-0.6 0.9-0.4 2.2 0.5 2.8 3.1 2 6.4 3.1 9.6 3.1 2.5 0 4.9-0.7 6.9-2.1zm-70.5-53.1c-6.5 5.8-8.2 13.5-4.7 20.7 3 6.3 11.8 10.3 19.2 9 5.1-0.9 9.2-3.4 12.8-6.9 7.5 5.5 15.4 5.3 17.4-0.6-7.9 0.4-13.2-5-13.2-5l5.4-13.4c0.4-0.9 1.3-1.6 2.3-1.6h3.5v-4h-16.7v4h3.7c1.1 0 1.8 1.2 1.4 2.2l-4.4 8.8c0 0-4.2-5-6.3-7.4-2.1-2.4-4.5-4.9-6.7-7.4 1.9-1.3 3.8-2.6 5.5-3.9 6.1-5 6.4-12.3 0.8-17.8-3.4-3.3-10.3-4.2-14.8-1.9-4.8 2.4-7 9.4-5 14.1 1.6 3.7 1.9 3.9 4.1 7.4-0.9 0.7-3 2.5-4.3 3.7zm7.9 22.7c-4.3-1.6-7.3-4.8-7.4-9.5-0.2-5.2 3.5-8.3 7.6-11.2 5 5.5 9.5 10.5 14.5 16.1-4.5 3.8-9 6.6-14.7 4.6zm9.2-39c0.7 2.2 0.3 3.8-1.2 5.2-1.6 1.5-3.2 2.3-5.6 3.9-0.6-1-4.4-6.2-3.9-8.8 0.5-2.1 3-3.9 5.7-4 1.9 0.1 4 1.1 5 3.7z"/>
		<path id="Path 38" fill-rule="evenodd" class="s0" d="m222.7 177.9c0 0 14.5-2 17.8 3.3v-12.6c-3.9 4.7-18.1 2.9-18.1 2.9v-14.4c6.2 0 12.3 0 18.4 0 2.5-0.1 4.1 0 6 2.5v-10.2c0 0-0.7 1.3-6.3 1.3-3 0-25.5 0-28.6 0 3.7 1.6 3.4 4.7 3.4 7.9-0.1 11.4-0.1 22.9 0 34.4 0 2.9-0.9 4.7-3.4 6 2.2-0.1 33.2-1.2 38.6 2.1v-12.9c-1.1 1.4-1.7 2.3-2.4 2.9-0.6 0.5-1.3 1.2-2 1.2-7.7 0.1-23.4 0-23.4 0zm-88.7-25.9c3.6 2 3.6 2 2.1 6q-3.2 8.7-6.5 17.3c-0.8 2.2-1.6 4.3-2.5 6.7-4.6-10.9-9-21.3-13.6-32.3-4.6 11-9 21.4-13.6 32.3-0.9-2.4-1.8-4.5-2.6-6.7q-3.2-8.6-6.4-17.3c-1.5-4-1.5-4 2.1-6 0.4-0.2 0.7-0.5 1.7-1h-16.8c5.3 1.3 22 48 22 48 0 0 9.2-20.3 13.5-30.7q0 0.1 0.1 0.2 0 0 0 0 0-0.1 0.1-0.2c4.3 10.4 13.5 30.7 13.5 30.7 0 0 16.7-46.7 22-48h-16.8c0.9 0.5 1.3 0.8 1.7 1z"/>
	</g>
</svg>